<svg width="32" height="32" viewBox="0 0 32 32" fill="none" xmlns="http://www.w3.org/2000/svg">
<path d="M11.9375 6L11.9375 26M11.9375 26L28 26C28.5523 26 29 25.5523 29 25L29 21.1667C29 20.6144 28.5444 20.1701 28.0161 20.009C26.5426 19.5596 24.9375 18.1639 24.9375 16C24.9375 13.8361 26.5426 12.4404 28.0161 11.991C28.5444 11.8299 29 11.3856 29 10.8333L29 7C29 6.44771 28.5523 6 28 6L4 6C3.44772 6 3 6.44772 3 7L3 10.8333C3 11.3856 3.45563 11.8299 3.9839 11.991C5.45742 12.4404 7.0625 13.8361 7.0625 16C7.0625 18.1639 5.45742 19.5596 3.9839 20.009C3.45563 20.1701 3 20.6144 3 21.1667L3 25C3 25.5523 3.44772 26 4 26L11.9375 26Z" stroke="#313131" stroke-width="2.25" stroke-linecap="round" stroke-linejoin="round"/>
</svg>
