<svg width="32" height="32" viewBox="0 0 32 32" fill="none" xmlns="http://www.w3.org/2000/svg">
<path d="M14.9167 14.9167L14.9759 14.8878C15.1611 14.7952 15.369 14.7577 15.5749 14.7797C15.7807 14.8016 15.976 14.8821 16.1376 15.0116C16.2991 15.1411 16.4202 15.3141 16.4864 15.5103C16.5527 15.7065 16.5613 15.9175 16.5113 16.1184L15.4887 20.2149C15.4383 20.4159 15.4467 20.6272 15.5128 20.8236C15.5789 21.02 15.6999 21.1933 15.8615 21.323C16.0232 21.4527 16.2186 21.5333 16.4247 21.5553C16.6307 21.5773 16.8388 21.5397 17.0241 21.447L17.0833 21.4167M29 16C29 17.7072 28.6637 19.3976 28.0104 20.9749C27.3571 22.5521 26.3996 23.9852 25.1924 25.1924C23.9852 26.3995 22.5521 27.3571 20.9749 28.0104C19.3977 28.6637 17.7072 29 16 29C14.2928 29 12.6024 28.6637 11.0251 28.0104C9.44788 27.3571 8.01478 26.3995 6.80761 25.1924C5.60045 23.9852 4.64288 22.5521 3.98957 20.9749C3.33626 19.3977 3 17.7072 3 16C3 12.5522 4.36964 9.24558 6.80761 6.80761C9.24558 4.36964 12.5522 3 16 3C19.4478 3 22.7544 4.36964 25.1924 6.80761C27.6304 9.24558 29 12.5522 29 16ZM16 10.5833L16.0116 10.5833L16.0116 10.5949L16 10.5949L16 10.5833Z" stroke="#313131" stroke-width="2.25" stroke-linecap="round" stroke-linejoin="round"/>
</svg>
