<svg width="32" height="32" viewBox="0 0 32 32" fill="none" xmlns="http://www.w3.org/2000/svg">
<path d="M26.6663 28L26.6663 25.3333C26.6663 23.9188 26.1044 22.5623 25.1042 21.5621C24.104 20.5619 22.7475 20 21.333 20L10.6663 20C9.25185 20 7.8953 20.5619 6.8951 21.5621C5.89491 22.5623 5.33301 23.9188 5.33301 25.3333L5.33301 28" stroke="#313131" stroke-width="2.25" stroke-linecap="round" stroke-linejoin="round"/>
<path d="M15.9993 14.6667C18.9449 14.6667 21.3327 12.2789 21.3327 9.33333C21.3327 6.38781 18.9449 4 15.9993 4C13.0538 4 10.666 6.38781 10.666 9.33333C10.666 12.2789 13.0538 14.6667 15.9993 14.6667Z" stroke="#313131" stroke-width="2.25" stroke-linecap="round" stroke-linejoin="round"/>
</svg>
