<svg width="32" height="32" viewBox="0 0 32 32" fill="none" xmlns="http://www.w3.org/2000/svg">
<path d="M12.36 4.35778C12.4961 3.57489 13.2071 3 14.0391 3L17.9616 3C18.7936 3 19.5046 3.57489 19.6408 4.35778L19.963 6.20811C20.0583 6.74833 20.4365 7.199 20.9387 7.46478C21.0506 7.52255 21.1611 7.58466 21.2715 7.64822C21.7616 7.93133 22.3607 8.01944 22.8977 7.82733L24.7387 7.16866C25.1159 7.03319 25.5313 7.02997 25.9108 7.15958C26.2904 7.2892 26.6094 7.54323 26.8111 7.87644L28.7716 11.1221C28.9729 11.4553 29.0438 11.846 28.9718 12.2245C28.8998 12.603 28.6895 12.9448 28.3783 13.1891L26.861 14.3837C26.4178 14.7303 26.1985 15.2691 26.209 15.8166C26.2115 15.9393 26.2115 16.0621 26.209 16.1849C26.1985 16.7309 26.4178 17.2682 26.8595 17.6149L28.3798 18.8109C29.0212 19.3164 29.1876 20.1889 28.7731 20.8764L26.8096 24.1221C26.6082 24.4553 26.2895 24.7094 25.9103 24.8392C25.5311 24.9691 25.1159 24.9663 24.7387 24.8313L22.8977 24.1727C22.3607 23.9806 21.7631 24.0687 21.27 24.3518C21.1603 24.4155 21.0493 24.4771 20.9372 24.5367C20.4365 24.801 20.0583 25.2517 19.963 25.7919L19.6408 27.6408C19.5046 28.4251 18.7936 29 17.9616 29L14.0376 29C13.2056 29 12.4946 28.4251 12.3585 27.6422L12.0363 25.7919C11.9425 25.2517 11.5643 24.801 11.0621 24.5352C10.9499 24.4761 10.8389 24.415 10.7293 24.3518C10.2376 24.0687 9.64009 23.9806 9.10156 24.1727L7.26056 24.8313C6.88348 24.9664 6.46844 24.9694 6.08925 24.8398C5.71006 24.7102 5.39129 24.4564 5.18963 24.1236L3.22762 20.8779C3.02634 20.5446 2.9554 20.154 3.02742 19.7755C3.09944 19.397 3.30975 19.0552 3.62093 18.8109L5.13971 17.6163C5.58143 17.2697 5.80078 16.7309 5.79019 16.1834C5.78782 16.0607 5.78782 15.9379 5.79019 15.8151C5.80077 15.2691 5.58143 14.7318 5.13971 14.3851L3.62093 13.1891C3.31012 12.9448 3.10006 12.6033 3.02805 12.2251C2.95604 11.847 3.02675 11.4567 3.22762 11.1236L5.18963 7.87789C5.39111 7.54442 5.71003 7.29008 6.08957 7.1602C6.46912 7.03031 6.88463 7.03331 7.26207 7.16867L9.10156 7.82733C9.64009 8.01944 10.2376 7.93133 10.7293 7.64822C10.8382 7.58467 10.9501 7.52255 11.0621 7.46333C11.5643 7.199 11.9425 6.74833 12.0363 6.20811L12.36 4.35778Z" stroke="#313131" stroke-width="2.25" stroke-linecap="round" stroke-linejoin="round"/>
<path d="M21 16C21 17.3261 20.4732 18.5979 19.5355 19.5355C18.5979 20.4732 17.3261 21 16 21C14.6739 21 13.4021 20.4732 12.4645 19.5355C11.5268 18.5979 11 17.3261 11 16C11 14.6739 11.5268 13.4021 12.4645 12.4645C13.4021 11.5268 14.6739 11 16 11C17.3261 11 18.5979 11.5268 19.5355 12.4645C20.4732 13.4021 21 14.6739 21 16Z" stroke="#313131" stroke-width="2.25" stroke-linecap="round" stroke-linejoin="round"/>
</svg>
