<svg width="32" height="32" viewBox="0 0 32 32" fill="none" xmlns="http://www.w3.org/2000/svg">
<path d="M20.888 5.184C20.7102 4.55507 20.3319 4.0014 19.8106 3.60718C19.2893 3.21296 18.6536 2.99976 18 3L14 3C12.6267 3 11.4667 3.924 11.112 5.184M20.888 5.184C20.9613 5.44267 21 5.71733 21 6C21 6.26522 20.8946 6.51957 20.7071 6.70711C20.5196 6.89464 20.2652 7 20 7L12 7C11.7348 7 11.4804 6.89464 11.2929 6.70711C11.1054 6.51957 11 6.26522 11 6C11 5.71733 11.04 5.44267 11.112 5.184M20.888 5.184C21.7493 5.24933 22.6053 5.33067 23.4573 5.42933C24.924 5.6 26 6.86533 26 8.34267L26 26C26 26.7956 25.6839 27.5587 25.1213 28.1213C24.5587 28.6839 23.7957 29 23 29L9 29C8.20435 29 7.44129 28.6839 6.87868 28.1213C6.31607 27.5587 6 26.7957 6 26L6 8.34267C6 6.86533 7.07467 5.6 8.54267 5.42933C9.39738 5.33037 10.254 5.24857 11.112 5.184M11.4411 18.2295L14.8603 21.6487L20.5589 13.6706" stroke="#313131" stroke-width="2.25" stroke-linecap="round" stroke-linejoin="round"/>
</svg>
