<svg width="1920" height="1604" viewBox="0 0 1920 1604" fill="none" xmlns="http://www.w3.org/2000/svg">
<path d="M2063.32 999.416C1768.12 191.816 1200.32 -1.75043 953.316 2.41623C889.649 -105.417 771.416 -323.684 807.816 -334.084C853.316 -347.084 1713.82 -421.084 1749.32 -408.584C1784.82 -396.084 2894.82 274.416 2894.82 293.916C2894.82 309.516 2916.48 1590.42 2927.32 2228.92L1496.82 1970.42C1808.65 1983.25 2358.52 1807.02 2063.32 999.416Z" fill="#9BD1DA"/>
<path d="M209.999 836.416C216.839 239.958 1218.5 -37.6667 1465.5 -33.5C1529.16 -141.333 1501.9 -486.684 1465.5 -497.084C1420 -510.084 559.499 -584.084 523.999 -571.584C488.499 -559.084 -621.502 111.417 -621.502 130.917C-621.502 146.516 -643.169 1427.42 -654.002 2065.92L1123.5 1783.5C811.666 1796.33 204.107 1350.25 209.999 836.416Z" fill="#50AFBF"/>
</svg>
