<svg width="29" height="31" viewBox="0 0 29 31" fill="none" xmlns="http://www.w3.org/2000/svg">
<g id="&#240;&#159;&#166;&#134; icon &#34;magicpen&#34;">
<g id="Group">
<path id="Vector" d="M26.0339 9.79677L23.7412 12.0895L19.125 7.47329L21.4177 5.18058C22.064 4.53431 22.8949 4.22656 23.7258 4.22656C24.5567 4.22656 25.3876 4.53431 26.0339 5.18058C27.3111 6.45772 27.3111 8.51962 26.0339 9.79677Z" fill="white"/>
<path id="Vector_2" d="M22.6551 13.1826L6.02132 29.8009C4.74418 31.078 2.68227 31.078 1.40513 29.8009C0.127979 28.5237 0.127979 26.4618 1.40513 25.1847L18.0389 8.56641L22.6551 13.1826Z" fill="white"/>
<path id="Vector_3" d="M11.3319 3.64567L11.9628 1.50683C12.0243 1.30679 11.9628 1.09137 11.8243 0.937497C11.6858 0.783624 11.4396 0.722075 11.2396 0.783624L9.10074 1.4145L6.96191 0.783624C6.76187 0.722075 6.54645 0.783624 6.39258 0.92211C6.2387 1.07598 6.19254 1.29141 6.25409 1.49144L6.86958 3.64567L6.2387 5.7845C6.17715 5.98452 6.2387 6.19996 6.37719 6.35383C6.53106 6.50771 6.74648 6.55387 6.94652 6.49232L9.10074 5.87683L11.2396 6.50771C11.3011 6.52309 11.3473 6.53848 11.4088 6.53848C11.5627 6.53848 11.7012 6.47693 11.8243 6.36922C11.9782 6.21535 12.0243 5.99993 11.9628 5.79989L11.3319 3.64567Z" fill="white"/>
<path id="Vector_4" d="M5.18151 12.8781L5.81239 10.7392C5.87394 10.5392 5.81239 10.3238 5.67391 10.1699C5.52004 10.016 5.30461 9.96988 5.10458 10.0314L2.95035 10.6469L0.8115 10.016C0.611465 9.9545 0.396058 10.016 0.242185 10.1545C0.0883113 10.3084 0.0421495 10.5238 0.103699 10.7239L0.719191 12.8781L0.0883115 15.0169C0.0267622 15.2169 0.0883113 15.4324 0.226797 15.5862C0.38067 15.7401 0.596078 15.7863 0.796113 15.7247L2.93495 15.0938L5.0738 15.7247C5.11996 15.7401 5.18151 15.7401 5.24305 15.7401C5.39692 15.7401 5.53542 15.6786 5.65852 15.5709C5.81239 15.417 5.85856 15.2016 5.79701 15.0015L5.18151 12.8781Z" fill="white"/>
<path id="Vector_5" d="M28.2607 20.5703L28.8916 18.4315C28.9531 18.2314 28.8916 18.016 28.7531 17.8621C28.5992 17.7083 28.3838 17.6621 28.1837 17.7236L26.0449 18.3545L23.9061 17.7236C23.706 17.6621 23.4906 17.7236 23.3367 17.8621C23.1829 18.016 23.1367 18.2314 23.1983 18.4315L23.8291 20.5703L23.1983 22.7091C23.1367 22.9092 23.1983 23.1246 23.3367 23.2785C23.4906 23.4323 23.706 23.4785 23.9061 23.417L26.0449 22.7861L28.1837 23.417C28.2299 23.4323 28.2915 23.4323 28.353 23.4323C28.5069 23.4323 28.6454 23.3708 28.7685 23.2631C28.9223 23.1092 28.9685 22.8938 28.9069 22.6937L28.2607 20.5703Z" fill="white"/>
</g>
</g>
</svg>
