<svg width="17" height="18" viewBox="0 0 17 18" fill="none" xmlns="http://www.w3.org/2000/svg">
<path d="M8.10506 16.4699C3.63739 16.4699 0 12.8325 0 8.36483C0 3.89716 3.63739 0.259766 8.10506 0.259766C12.5727 0.259766 16.2101 3.89716 16.2101 8.36483C16.2101 12.8325 12.5727 16.4699 8.10506 16.4699ZM8.10506 1.44587C4.2858 1.44587 1.18611 4.55347 1.18611 8.36483C1.18611 12.1762 4.2858 15.2838 8.10506 15.2838C11.9243 15.2838 15.024 12.1762 15.024 8.36483C15.024 4.55347 11.9243 1.44587 8.10506 1.44587Z" fill="#292D32"/>
<path d="M16.4089 17.2597C16.2586 17.2597 16.1084 17.2044 15.9898 17.0858L14.4083 15.5043C14.179 15.275 14.179 14.8954 14.4083 14.6661C14.6376 14.4368 15.0172 14.4368 15.2465 14.6661L16.828 16.2476C17.0573 16.4769 17.0573 16.8565 16.828 17.0858C16.7094 17.2044 16.5591 17.2597 16.4089 17.2597Z" fill="#292D32"/>
</svg>
