<svg width="18" height="18" viewBox="0 0 17 17" fill="none" className="custom-svg" xmlns="http://www.w3.org/2000/svg">
  <g clipPath="url(#clip0_106_467)">
    <path d="M13.7866 13.0665C12.3661 14.76 10.2706 15.75 8.03864 15.75C3.90164 15.75 0.535645 12.3855 0.535645 8.25C0.535645 4.1145 3.90164 0.75 8.04014 0.75C9.67964 0.75 11.2351 1.2705 12.5431 2.2545C12.6481 2.76 12.7021 3.279 12.7021 3.798C12.7021 4.5735 12.5836 5.3385 12.3511 6.069C11.9071 7.461 11.0461 8.7105 9.90614 9.627C9.88064 8.4435 8.95064 7.518 7.78364 7.518C6.61664 7.518 5.66114 8.469 5.66114 9.6405C5.66114 10.812 6.61364 11.7615 7.78364 11.7615C8.05214 11.7615 8.31464 11.712 8.56364 11.6145L8.62814 11.589C8.85914 11.4885 9.08714 11.376 9.30764 11.256C9.48764 11.5905 9.71714 11.895 9.99164 12.1635C10.7041 12.861 11.6461 13.245 12.6421 13.245C13.0321 13.245 13.4191 13.185 13.7896 13.0665H13.7866Z" fill="black"/>
    <path d="M15.5355 8.2695C15.5355 8.9445 15.4455 9.6135 15.2685 10.2555C14.934 11.4285 13.8465 12.2475 12.624 12.2475C11.589 12.2475 10.6185 11.646 10.155 10.7325C11.6415 9.669 12.759 8.1345 13.314 6.3945C13.5795 5.5605 13.7145 4.6905 13.7145 3.8055C13.7145 3.6555 13.7115 3.5055 13.7025 3.354C14.8875 4.7205 15.534 6.4425 15.534 8.2665L15.5355 8.2695Z" fill="black"/>
  </g>
  <defs>
    <clipPath id="clip0_106_467">
      <rect width="16" height="16" fill="white" transform="translate(0.0356445 0.25)"/>
    </clipPath>
  </defs>
</svg>