<svg width="20" height="21" viewBox="0 0 20 21" fill="none" xmlns="http://www.w3.org/2000/svg">
<path d="M10 1.5L10 3.75M16.364 4.136L14.773 5.727M19 10.5L16.75 10.5M16.364 16.864L14.773 15.273M10 17.25L10 19.5M5.227 15.273L3.636 16.864M3.25 10.5L0.999999 10.5M5.227 5.727L3.636 4.136M13.75 10.5C13.75 11.4946 13.3549 12.4484 12.6516 13.1517C11.9484 13.8549 10.9946 14.25 10 14.25C9.00544 14.25 8.05161 13.8549 7.34835 13.1517C6.64509 12.4484 6.25 11.4946 6.25 10.5C6.25 9.50544 6.64509 8.55161 7.34835 7.84835C8.05161 7.14509 9.00544 6.75 10 6.75C10.9946 6.75 11.9484 7.14509 12.6516 7.84835C13.3549 8.55161 13.75 9.50544 13.75 10.5Z" stroke="#713559" stroke-width="1.7" stroke-linecap="round" stroke-linejoin="round"/>
</svg>
