<svg width="14" height="14" viewBox="0 0 14 14" fill="none" xmlns="http://www.w3.org/2000/svg">
<g clip-path="url(#clip0_34029_6488)">
<path d="M0.513502 8.21984L2.771 10.5007C2.82523 10.5553 2.88975 10.5987 2.96083 10.6284C3.03192 10.658 3.10816 10.6732 3.18517 10.6732C3.26218 10.6732 3.33842 10.658 3.40951 10.6284C3.48059 10.5987 3.54511 10.5553 3.59934 10.5007C3.65401 10.4464 3.69741 10.3819 3.72702 10.3108C3.75664 10.2398 3.77189 10.1635 3.77189 10.0865C3.77189 10.0095 3.75664 9.93326 3.72702 9.86217C3.69741 9.79109 3.65401 9.72657 3.59934 9.67234L1.52267 7.58401H13.4168C13.5715 7.58401 13.7199 7.52255 13.8293 7.41315C13.9387 7.30376 14.0002 7.15538 14.0002 7.00067C14.0002 6.84596 13.9387 6.69759 13.8293 6.5882C13.7199 6.4788 13.5715 6.41734 13.4168 6.41734H1.48767L3.59934 4.30567C3.70275 4.19719 3.76045 4.05306 3.76045 3.90317C3.76045 3.75329 3.70275 3.60916 3.59934 3.50067C3.54511 3.446 3.48059 3.4026 3.40951 3.37299C3.33842 3.34337 3.26218 3.32812 3.18517 3.32812C3.10816 3.32812 3.03192 3.34337 2.96083 3.37299C2.88975 3.4026 2.82523 3.446 2.771 3.50067L0.513502 5.74651C0.185785 6.07463 0.00170898 6.51942 0.00170898 6.98317C0.00170898 7.44693 0.185785 7.89172 0.513502 8.21984Z" fill="black"/>
</g>
<defs>
<clipPath id="clip0_34029_6488">
<rect width="14" height="14" fill="white"/>
</clipPath>
</defs>
</svg>
