<svg width="26" height="28" viewBox="0 0 26 28" fill="none" xmlns="http://www.w3.org/2000/svg">
<path d="M2.09082 2V10.4C2.09082 11.72 3.18173 12.8 4.51506 12.8H9.36355C10.0065 12.8 10.6231 12.5471 11.0777 12.0971C11.5324 11.647 11.7878 11.0365 11.7878 10.4V2M6.93931 2V26M23.909 17.6V6C23.909 3.79086 21.9394 1.91576 20.1889 3.26331C19.9913 3.41542 19.8024 3.58029 19.6235 3.75736C18.4869 4.88258 17.8484 6.4087 17.8484 8V15.2C17.8484 16.52 18.9393 17.6 20.2726 17.6H23.909ZM23.909 17.6V26" stroke="#313131" stroke-width="2.25" stroke-linecap="round" stroke-linejoin="round"/>
</svg>
