<svg width="76" height="76" viewBox="0 0 76 76" fill="none" xmlns="http://www.w3.org/2000/svg">
<path fill-rule="evenodd" clip-rule="evenodd" d="M38 75.5C42.9246 75.5 47.8009 74.53 52.3506 72.6455C56.9003 70.7609 61.0343 67.9987 64.5165 64.5165C67.9987 61.0343 70.7609 56.9003 72.6455 52.3506C74.53 47.8009 75.5 42.9246 75.5 38C75.5 33.0754 74.53 28.1991 72.6455 23.6494C70.7609 19.0997 67.9987 14.9657 64.5165 11.4835C61.0343 8.0013 56.9003 5.23907 52.3506 3.35452C47.8009 1.46997 42.9246 0.5 38 0.5C28.0544 0.5 18.5161 4.45088 11.4835 11.4835C4.45088 18.5161 0.5 28.0544 0.5 38C0.5 47.9456 4.45088 57.4839 11.4835 64.5165C18.5161 71.5491 28.0544 75.5 38 75.5ZM37.0333 53.1667L57.8667 28.1667L51.4667 22.8333L33.55 44.3292L24.2792 35.0542L18.3875 40.9458L30.8875 53.4458L34.1125 56.6708L37.0333 53.1667Z" fill="#00A254"/>
</svg>
